<svg version="1" xmlns="http://www.w3.org/2000/svg" width="1638.667" height="1638.667" viewBox="0 0 1229.000000 1229.000000"><path d="M341 257.4c-9.9 1.9-14.7 3.6-24 8.3-10.9 5.6-21.2 13.6-30.6 23.7-20.1 21.5-27.6 41.3-27.3 72 .1 7.2-.1 15.1-.5 17.6-2.6 15.8-9 31.2-17.8 42.6-7 9.1-65.3 67.1-73.9 73.4-9.8 7.3-22.4 13.4-33 16.1-6.6 1.6-12.5 2.1-27.3 2.4-21.6.5-30.9 2-42.9 7.1-22 9.2-44 30.5-54.9 52.9-3.4 7-5.9 15.3-7.7 25.5-1 5.5-.7 26.4.3 30.7.3 1.3.8 3.1 1 4.1 4.7 21 17.2 39.8 37.5 56.5 11.1 9.2 16.2 12.2 27 16.1 3.9 1.4 8.1 2.8 9.4 3 1.2.3 4.7 1 7.7 1.6 3 .6 12 1.1 20 1.1 12.6-.1 18.2.4 30.1 2.4 5.9 1 19 7.2 28.3 13.3 8.3 5.4 15.1 11.7 40.6 37.1 16.8 16.8 32.9 33.4 35.7 36.8 6.1 7.4 11.3 16.3 14.8 25.6 4.7 12.5 5.5 18.2 5.9 42.7.3 14 .8 18.9 2.4 24.5 5.8 19.9 12 29.7 29.4 46.8 15.6 15.2 29.1 22.7 47.9 26.7 26.7 5.6 56.1-1.5 76.9-18.5 17.7-14.5 30.4-31.8 35.9-49 4-12.5 4.3-14.5 4.6-35.5.2-10.2.8-20.8 1.5-23.5.6-2.8 1.3-5.7 1.5-6.6.7-3.6 6.4-16.7 9.5-21.9 1.8-3 5.4-8.2 8.1-11.5 2.6-3.3 57.8-59 122.6-123.7 64.8-64.8 135.2-135.5 156.5-157.1 39.3-40 47.8-47.6 60.3-54.3 16.1-8.5 26.4-10.5 53.9-10.5 11.6 0 23.4.3 26.1.6 7.3.9 17.9 4 25.4 7.5 14.6 6.9 22 13.1 55.3 46.4 17.6 17.7 34 34.8 36.5 38.1 7.2 9.6 14.1 24.6 16.5 35.9 1.6 7.8 1.8 51.2.2 59.5-2.8 14.5-8.5 27.5-17.4 39.6-.8 1.1-16.8 17.4-35.5 36.1-35 35.2-41.2 40.4-55.5 47.2-10.5 4.9-21 7.3-35 7.8-22.4.8-30.4 1.2-33.5 1.9-10.7 2.1-27.1 9.1-34 14.4-2.2 1.7-5.1 4-6.5 5-5.3 4.1-16.8 16.1-21.8 22.7-12 16-17.3 31.5-17.8 52.4-.3 13.7.5 19.9 4.1 31.5 1.7 5.4 8.8 20.3 10.4 21.5.3.3 1.9 2.4 3.5 4.7 4.1 6.1 17 18.9 25.1 25.1 9.1 6.9 20.8 12.5 32.2 15.6 8.1 2.1 11 2.4 24 2.2 17.1-.3 25.8-2.2 38.8-8.5 18-8.6 37.9-27.8 47.9-46.2 8.1-14.8 10.5-25.8 11.1-50.9.4-19.7.8-22.9 4.7-34 3.5-10 9.3-20.3 15.7-28 4.9-5.8 60.2-61.4 66.1-66.5 9.9-8.4 21.8-15.1 33.8-18.9 10.3-3.2 15.2-3.8 35.7-4.1 13.9-.1 18.6-.6 25.9-2.4 17.8-4.6 30.5-12 45.4-26.8 17.3-17.1 24.8-30 29.7-51 1.8-7.5 1.7-29.2-.1-37.8-4-19.2-13.1-35.1-29.1-50.7-22.2-21.8-39.2-28.9-70-29.3-26.5-.5-32.7-1.6-48.3-8.7-14.5-6.6-21.8-12.7-56-47-33.8-33.8-38.9-39.9-45.4-53.8-6.4-13.7-7.8-21.1-8.1-42.7-.2-10.5-.6-20.4-.9-22-.4-1.5-.9-4.1-1.2-5.7-4.5-25-29.3-55.5-56.1-68.9-5.9-3-15.6-6.4-20.3-7.2-1.9-.3-4.3-.8-5.2-1.1-3.3-1-19.2-1.2-26.7-.3-9.1 1.1-22.5 5.1-30.2 9-21.2 10.7-45.8 38.1-52 58-4 12.9-4.7 17.8-4.9 33.9-.3 25.2-1.4 31.8-7.9 46.3-7.9 17.6 2.9 6.3-207.1 216.6-136 136.3-133.4 133.9-150.5 141.6-14.4 6.6-22.1 7.8-49 7.8-26.7 0-33.7-.9-47.5-6.6-16-6.5-21.9-11.3-60-49.6-37.2-37.2-39.2-39.7-46.2-55.6-5.9-13.2-7.1-21.5-7-48.5 0-25 .8-30.9 6.3-45.2 5.8-14.9 12-22.6 45.7-56.3 17-17.1 33.1-32.9 35.6-35 10.9-9.2 28.3-17.8 41.6-20.5 3.6-.7 14.4-1.4 24.1-1.6 20-.3 26.7-1.3 38.4-5.5 8.6-3.1 21.5-10.6 27.5-15.9 19.6-17.4 29.8-31.7 35.3-49.5 3.1-10 3.9-15.6 4-27 .2-28.3-9.4-49.4-32.2-71.4-14.3-13.8-28.9-22.1-45.1-25.7-1.9-.4-4.2-.9-5-1.1-4.3-1.1-27.3-.9-33 .1z"/></svg>